<svg xmlns="http://www.w3.org/2000/svg" width="48" height="48" viewBox="0 0 48 48"><g fill="none"><path fill="url(#SVGz7A3JdpM)" d="M6 10a4 4 0 0 1 4-4h11a4 4 0 0 1 4 4v13a1 1 0 0 1-1 1H7a1 1 0 0 1-1-1z"/><path fill="url(#SVG3T7C0cWV)" d="M38 23a4 4 0 0 1 4 4v11a4 4 0 0 1-4 4H24a1 1 0 0 1-1-1V24a1 1 0 0 1 1-1z"/><path fill="url(#SVGeYavge7A)" d="M25 41a1 1 0 0 1-1 1H10a4 4 0 0 1-4-4V24a1 1 0 0 1 1-1h17a1 1 0 0 1 1 1z"/><path fill="url(#SVGGrPlwcqL)" d="M30.254 5.245a4.25 4.25 0 0 1 6.01.02l6.463 6.508a4.25 4.25 0 0 1-.02 6.01l-6.496 6.45a4.25 4.25 0 0 1-6.01-.02l-6.463-6.508a4.25 4.25 0 0 1 .021-6.01z"/><defs><linearGradient id="SVGz7A3JdpM" x1="6" x2="23.974" y1="6.184" y2="25.156" gradientUnits="userSpaceOnUse"><stop stop-color="#b9c0c7"/><stop offset="1" stop-color="#889096"/></linearGradient><linearGradient id="SVG3T7C0cWV" x1="42" x2="24.357" y1="40.643" y2="23" gradientUnits="userSpaceOnUse"><stop stop-color="#63686e"/><stop offset="1" stop-color="#889096"/></linearGradient><linearGradient id="SVGeYavge7A" x1="6" x2="25" y1="23" y2="35.214" gradientUnits="userSpaceOnUse"><stop stop-color="#55595e"/><stop offset="1" stop-color="#383b3d"/></linearGradient><linearGradient id="SVGGrPlwcqL" x1="40.133" x2="28.183" y1="20.592" y2="5.746" gradientUnits="userSpaceOnUse"><stop stop-color="#2764e7"/><stop offset="1" stop-color="#36dff1"/></linearGradient></defs></g></svg>